<mxfile host="app.diagrams.net" agent="Mozilla/5.0 (Windows NT 10.0; Win64; x64) AppleWebKit/537.36 (KHTML, like Gecko) Chrome/124.0.0.0 Safari/537.36 SLBrowser/9.0.6.4011 SLBChan/11 SLBVPV/64-bit" version="27.1.4">
  <diagram name="第 1 页" id="_9PPavwD3CCcuWAf2doY">
    <mxGraphModel dx="2795" dy="1446" grid="0" gridSize="10" guides="1" tooltips="1" connect="1" arrows="1" fold="1" page="0" pageScale="1" pageWidth="827" pageHeight="1169" math="0" shadow="0">
      <root>
        <mxCell id="0" />
        <mxCell id="1" parent="0" />
        <mxCell id="JhrDCpCHhot6Ddgrnvpp-4" value="Subscription Process" style="rounded=0;whiteSpace=wrap;html=1;fontStyle=1;verticalAlign=top;fontSize=15;fillColor=#fff2cc;strokeColor=#d6b656;" parent="1" vertex="1">
          <mxGeometry x="-330" y="-100" width="210" height="1180" as="geometry" />
        </mxCell>
        <mxCell id="JhrDCpCHhot6Ddgrnvpp-8" value="Publishing Process" style="rounded=0;whiteSpace=wrap;html=1;fontStyle=1;verticalAlign=top;fontSize=15;fillColor=#fff2cc;strokeColor=#d6b656;" parent="1" vertex="1">
          <mxGeometry x="-15" y="-105" width="400" height="750" as="geometry" />
        </mxCell>
        <mxCell id="JhrDCpCHhot6Ddgrnvpp-11" value="Monitoring Tool" style="rounded=0;whiteSpace=wrap;html=1;fontStyle=1;verticalAlign=top;fontSize=15;fillColor=#fff2cc;strokeColor=#d6b656;" parent="1" vertex="1">
          <mxGeometry x="440" y="-100" width="220" height="760" as="geometry" />
        </mxCell>
        <mxCell id="JhrDCpCHhot6Ddgrnvpp-17" value="Feedback" style="rhombus;whiteSpace=wrap;html=1;" parent="1" vertex="1">
          <mxGeometry x="475" y="737.5" width="130" height="125" as="geometry" />
        </mxCell>
        <mxCell id="JhrDCpCHhot6Ddgrnvpp-26" style="edgeStyle=orthogonalEdgeStyle;rounded=0;orthogonalLoop=1;jettySize=auto;html=1;exitX=0.5;exitY=0.5;exitDx=0;exitDy=0;exitPerimeter=0;" parent="1" source="JhrDCpCHhot6Ddgrnvpp-19" target="JhrDCpCHhot6Ddgrnvpp-4" edge="1">
          <mxGeometry relative="1" as="geometry" />
        </mxCell>
        <mxCell id="JhrDCpCHhot6Ddgrnvpp-19" value="Actor" style="shape=umlActor;verticalLabelPosition=bottom;verticalAlign=top;html=1;" parent="1" vertex="1">
          <mxGeometry x="-450" y="440" width="60" height="100" as="geometry" />
        </mxCell>
        <mxCell id="JhrDCpCHhot6Ddgrnvpp-29" style="edgeStyle=orthogonalEdgeStyle;rounded=0;orthogonalLoop=1;jettySize=auto;html=1;exitX=1;exitY=0.5;exitDx=0;exitDy=0;entryX=0;entryY=0.5;entryDx=0;entryDy=0;" parent="1" source="JhrDCpCHhot6Ddgrnvpp-20" target="JhrDCpCHhot6Ddgrnvpp-27" edge="1">
          <mxGeometry relative="1" as="geometry" />
        </mxCell>
        <mxCell id="JhrDCpCHhot6Ddgrnvpp-20" value="Game Server Subscribes to Topic" style="ellipse;whiteSpace=wrap;html=1;" parent="1" vertex="1">
          <mxGeometry x="-310" y="-60" width="170" height="80" as="geometry" />
        </mxCell>
        <mxCell id="JhrDCpCHhot6Ddgrnvpp-31" value="" style="edgeStyle=orthogonalEdgeStyle;rounded=0;orthogonalLoop=1;jettySize=auto;html=1;" parent="1" source="JhrDCpCHhot6Ddgrnvpp-21" target="JhrDCpCHhot6Ddgrnvpp-22" edge="1">
          <mxGeometry relative="1" as="geometry" />
        </mxCell>
        <mxCell id="JhrDCpCHhot6Ddgrnvpp-21" value="Wrisband Sends JSON Data" style="ellipse;whiteSpace=wrap;html=1;" parent="1" vertex="1">
          <mxGeometry x="92.94" y="340" width="214.13" height="70" as="geometry" />
        </mxCell>
        <mxCell id="JhrDCpCHhot6Ddgrnvpp-73" style="edgeStyle=orthogonalEdgeStyle;rounded=0;orthogonalLoop=1;jettySize=auto;html=1;exitX=1;exitY=0.5;exitDx=0;exitDy=0;entryX=0;entryY=0.5;entryDx=0;entryDy=0;" parent="1" source="JhrDCpCHhot6Ddgrnvpp-22" target="JhrDCpCHhot6Ddgrnvpp-59" edge="1">
          <mxGeometry relative="1" as="geometry" />
        </mxCell>
        <mxCell id="JhrDCpCHhot6Ddgrnvpp-90" style="edgeStyle=orthogonalEdgeStyle;rounded=0;orthogonalLoop=1;jettySize=auto;html=1;exitX=1;exitY=1;exitDx=0;exitDy=0;" parent="1" source="JhrDCpCHhot6Ddgrnvpp-22" target="JhrDCpCHhot6Ddgrnvpp-60" edge="1">
          <mxGeometry relative="1" as="geometry" />
        </mxCell>
        <mxCell id="JhrDCpCHhot6Ddgrnvpp-22" value="MQTT Broker" style="ellipse;whiteSpace=wrap;html=1;" parent="1" vertex="1">
          <mxGeometry x="130" y="450" width="140" height="60" as="geometry" />
        </mxCell>
        <mxCell id="JhrDCpCHhot6Ddgrnvpp-58" style="edgeStyle=orthogonalEdgeStyle;rounded=0;orthogonalLoop=1;jettySize=auto;html=1;exitX=1;exitY=1;exitDx=0;exitDy=0;" parent="1" source="JhrDCpCHhot6Ddgrnvpp-23" target="JhrDCpCHhot6Ddgrnvpp-17" edge="1">
          <mxGeometry relative="1" as="geometry">
            <Array as="points">
              <mxPoint x="-175" y="630" />
              <mxPoint x="-175" y="670" />
              <mxPoint x="540" y="670" />
            </Array>
          </mxGeometry>
        </mxCell>
        <mxCell id="JhrDCpCHhot6Ddgrnvpp-23" value="Receive Data" style="ellipse;whiteSpace=wrap;html=1;" parent="1" vertex="1">
          <mxGeometry x="-310" y="570" width="170" height="70" as="geometry" />
        </mxCell>
        <mxCell id="JhrDCpCHhot6Ddgrnvpp-82" style="edgeStyle=orthogonalEdgeStyle;rounded=0;orthogonalLoop=1;jettySize=auto;html=1;exitX=0;exitY=0.5;exitDx=0;exitDy=0;entryX=0;entryY=0;entryDx=0;entryDy=0;" parent="1" source="JhrDCpCHhot6Ddgrnvpp-24" target="JhrDCpCHhot6Ddgrnvpp-66" edge="1">
          <mxGeometry relative="1" as="geometry">
            <mxPoint x="-540" y="-180" as="targetPoint" />
            <Array as="points">
              <mxPoint x="-540" y="1000" />
              <mxPoint x="-540" y="-140" />
              <mxPoint x="70" y="-140" />
              <mxPoint x="70" y="120" />
              <mxPoint x="137" y="120" />
            </Array>
          </mxGeometry>
        </mxCell>
        <mxCell id="JhrDCpCHhot6Ddgrnvpp-83" value="Circulation" style="edgeLabel;html=1;align=center;verticalAlign=middle;resizable=0;points=[];fontSize=22;" parent="JhrDCpCHhot6Ddgrnvpp-82" vertex="1" connectable="0">
          <mxGeometry x="0.3656" y="-4" relative="1" as="geometry">
            <mxPoint x="-226" y="396" as="offset" />
          </mxGeometry>
        </mxCell>
        <mxCell id="JhrDCpCHhot6Ddgrnvpp-24" value="&#xa;&lt;span style=&quot;color: rgb(0, 0, 0); font-family: Helvetica; font-size: 12px; font-style: normal; font-variant-ligatures: normal; font-variant-caps: normal; font-weight: 400; letter-spacing: normal; orphans: 2; text-align: center; text-indent: 0px; text-transform: none; widows: 2; word-spacing: 0px; -webkit-text-stroke-width: 0px; white-space: normal; background-color: rgb(251, 251, 251); text-decoration-thickness: initial; text-decoration-style: initial; text-decoration-color: initial; display: inline !important; float: none;&quot;&gt;Update Buddy Status&lt;/span&gt;&#xa;&#xa;" style="ellipse;whiteSpace=wrap;html=1;" parent="1" vertex="1">
          <mxGeometry x="-320" y="960" width="170" height="80" as="geometry" />
        </mxCell>
        <mxCell id="JhrDCpCHhot6Ddgrnvpp-65" value="" style="edgeStyle=orthogonalEdgeStyle;rounded=0;orthogonalLoop=1;jettySize=auto;html=1;" parent="1" source="JhrDCpCHhot6Ddgrnvpp-27" target="JhrDCpCHhot6Ddgrnvpp-64" edge="1">
          <mxGeometry relative="1" as="geometry" />
        </mxCell>
        <mxCell id="JhrDCpCHhot6Ddgrnvpp-27" value="&lt;span style=&quot;font-size: x-small;&quot;&gt;Get&amp;nbsp;&lt;/span&gt;&lt;span style=&quot;font-size: x-small;&quot;&gt;Wristband&lt;/span&gt;" style="ellipse;whiteSpace=wrap;html=1;" parent="1" vertex="1">
          <mxGeometry x="110" y="-60" width="180" height="80" as="geometry" />
        </mxCell>
        <mxCell id="JhrDCpCHhot6Ddgrnvpp-43" value="No" style="html=1;verticalAlign=bottom;endArrow=open;dashed=1;endSize=8;curved=0;rounded=0;exitX=0;exitY=0.5;exitDx=0;exitDy=0;" parent="1" source="JhrDCpCHhot6Ddgrnvpp-17" target="JhrDCpCHhot6Ddgrnvpp-62" edge="1">
          <mxGeometry relative="1" as="geometry">
            <mxPoint x="470" y="650" as="sourcePoint" />
            <mxPoint x="250" y="700" as="targetPoint" />
          </mxGeometry>
        </mxCell>
        <mxCell id="JhrDCpCHhot6Ddgrnvpp-44" value="Yes" style="html=1;verticalAlign=bottom;endArrow=open;dashed=1;endSize=8;curved=0;rounded=0;exitX=0.5;exitY=1;exitDx=0;exitDy=0;entryX=0.5;entryY=0;entryDx=0;entryDy=0;" parent="1" source="JhrDCpCHhot6Ddgrnvpp-17" target="JhrDCpCHhot6Ddgrnvpp-61" edge="1">
          <mxGeometry relative="1" as="geometry">
            <mxPoint x="550" y="710" as="sourcePoint" />
            <mxPoint x="534.0322580645161" y="890.0000000000002" as="targetPoint" />
          </mxGeometry>
        </mxCell>
        <mxCell id="JhrDCpCHhot6Ddgrnvpp-45" value="heart_rate" style="ellipse;whiteSpace=wrap;html=1;" parent="1" vertex="1">
          <mxGeometry x="-10.000000000000002" y="120" width="80" height="35" as="geometry" />
        </mxCell>
        <mxCell id="JhrDCpCHhot6Ddgrnvpp-46" value="steps" style="ellipse;whiteSpace=wrap;html=1;" parent="1" vertex="1">
          <mxGeometry x="-10.000000000000002" y="155" width="80" height="35" as="geometry" />
        </mxCell>
        <mxCell id="JhrDCpCHhot6Ddgrnvpp-47" value="sleep_duration" style="ellipse;whiteSpace=wrap;html=1;" parent="1" vertex="1">
          <mxGeometry x="-10" y="190" width="80" height="32.5" as="geometry" />
        </mxCell>
        <mxCell id="JhrDCpCHhot6Ddgrnvpp-48" value="calories" style="ellipse;whiteSpace=wrap;html=1;" parent="1" vertex="1">
          <mxGeometry x="-10.000000000000002" y="222.5" width="80" height="35" as="geometry" />
        </mxCell>
        <mxCell id="JhrDCpCHhot6Ddgrnvpp-74" style="edgeStyle=orthogonalEdgeStyle;rounded=0;orthogonalLoop=1;jettySize=auto;html=1;exitX=0.5;exitY=1;exitDx=0;exitDy=0;entryX=0.5;entryY=0;entryDx=0;entryDy=0;" parent="1" source="JhrDCpCHhot6Ddgrnvpp-59" target="JhrDCpCHhot6Ddgrnvpp-60" edge="1">
          <mxGeometry relative="1" as="geometry" />
        </mxCell>
        <mxCell id="JhrDCpCHhot6Ddgrnvpp-59" value="MQTT Explorer" style="ellipse;whiteSpace=wrap;html=1;" parent="1" vertex="1">
          <mxGeometry x="460" y="-50" width="170" height="80" as="geometry" />
        </mxCell>
        <mxCell id="JhrDCpCHhot6Ddgrnvpp-77" value="" style="edgeStyle=orthogonalEdgeStyle;rounded=0;orthogonalLoop=1;jettySize=auto;html=1;" parent="1" source="JhrDCpCHhot6Ddgrnvpp-60" target="JhrDCpCHhot6Ddgrnvpp-76" edge="1">
          <mxGeometry relative="1" as="geometry" />
        </mxCell>
        <mxCell id="JhrDCpCHhot6Ddgrnvpp-60" value="Game Server" style="ellipse;whiteSpace=wrap;html=1;" parent="1" vertex="1">
          <mxGeometry x="470" y="460" width="150" height="80" as="geometry" />
        </mxCell>
        <mxCell id="JhrDCpCHhot6Ddgrnvpp-81" style="edgeStyle=orthogonalEdgeStyle;rounded=0;orthogonalLoop=1;jettySize=auto;html=1;exitX=0.5;exitY=1;exitDx=0;exitDy=0;" parent="1" source="JhrDCpCHhot6Ddgrnvpp-61" target="JhrDCpCHhot6Ddgrnvpp-24" edge="1">
          <mxGeometry relative="1" as="geometry" />
        </mxCell>
        <mxCell id="JhrDCpCHhot6Ddgrnvpp-61" value="Push Feedback to Wrisband" style="ellipse;whiteSpace=wrap;html=1;" parent="1" vertex="1">
          <mxGeometry x="470" y="900" width="140" height="80" as="geometry" />
        </mxCell>
        <mxCell id="JhrDCpCHhot6Ddgrnvpp-63" style="edgeStyle=orthogonalEdgeStyle;rounded=0;orthogonalLoop=1;jettySize=auto;html=1;exitX=0.5;exitY=1;exitDx=0;exitDy=0;entryX=0;entryY=0.5;entryDx=0;entryDy=0;" parent="1" source="JhrDCpCHhot6Ddgrnvpp-62" target="JhrDCpCHhot6Ddgrnvpp-61" edge="1">
          <mxGeometry relative="1" as="geometry" />
        </mxCell>
        <mxCell id="JhrDCpCHhot6Ddgrnvpp-62" value="Resend" style="ellipse;whiteSpace=wrap;html=1;" parent="1" vertex="1">
          <mxGeometry x="180" y="760.0000000000002" width="120" height="80" as="geometry" />
        </mxCell>
        <mxCell id="JhrDCpCHhot6Ddgrnvpp-67" value="" style="edgeStyle=orthogonalEdgeStyle;rounded=0;orthogonalLoop=1;jettySize=auto;html=1;" parent="1" source="JhrDCpCHhot6Ddgrnvpp-64" target="JhrDCpCHhot6Ddgrnvpp-66" edge="1">
          <mxGeometry relative="1" as="geometry" />
        </mxCell>
        <mxCell id="JhrDCpCHhot6Ddgrnvpp-64" value="&lt;font size=&quot;1&quot;&gt;Initialize&lt;/font&gt;" style="ellipse;whiteSpace=wrap;html=1;" parent="1" vertex="1">
          <mxGeometry x="110" y="40" width="180" height="80" as="geometry" />
        </mxCell>
        <mxCell id="JhrDCpCHhot6Ddgrnvpp-68" style="edgeStyle=orthogonalEdgeStyle;rounded=0;orthogonalLoop=1;jettySize=auto;html=1;exitX=0;exitY=0.5;exitDx=0;exitDy=0;entryX=1;entryY=0.5;entryDx=0;entryDy=0;" parent="1" source="JhrDCpCHhot6Ddgrnvpp-66" target="JhrDCpCHhot6Ddgrnvpp-45" edge="1">
          <mxGeometry relative="1" as="geometry" />
        </mxCell>
        <mxCell id="JhrDCpCHhot6Ddgrnvpp-69" style="edgeStyle=orthogonalEdgeStyle;rounded=0;orthogonalLoop=1;jettySize=auto;html=1;exitX=0;exitY=0.5;exitDx=0;exitDy=0;entryX=1;entryY=0.5;entryDx=0;entryDy=0;" parent="1" source="JhrDCpCHhot6Ddgrnvpp-66" target="JhrDCpCHhot6Ddgrnvpp-46" edge="1">
          <mxGeometry relative="1" as="geometry" />
        </mxCell>
        <mxCell id="JhrDCpCHhot6Ddgrnvpp-70" style="edgeStyle=orthogonalEdgeStyle;rounded=0;orthogonalLoop=1;jettySize=auto;html=1;exitX=0;exitY=0.5;exitDx=0;exitDy=0;entryX=1;entryY=0.5;entryDx=0;entryDy=0;" parent="1" source="JhrDCpCHhot6Ddgrnvpp-66" target="JhrDCpCHhot6Ddgrnvpp-47" edge="1">
          <mxGeometry relative="1" as="geometry" />
        </mxCell>
        <mxCell id="JhrDCpCHhot6Ddgrnvpp-71" style="edgeStyle=orthogonalEdgeStyle;rounded=0;orthogonalLoop=1;jettySize=auto;html=1;exitX=0;exitY=0.5;exitDx=0;exitDy=0;entryX=1;entryY=0.5;entryDx=0;entryDy=0;" parent="1" source="JhrDCpCHhot6Ddgrnvpp-66" target="JhrDCpCHhot6Ddgrnvpp-48" edge="1">
          <mxGeometry relative="1" as="geometry" />
        </mxCell>
        <mxCell id="JhrDCpCHhot6Ddgrnvpp-98" value="" style="edgeStyle=orthogonalEdgeStyle;rounded=0;orthogonalLoop=1;jettySize=auto;html=1;" parent="1" source="JhrDCpCHhot6Ddgrnvpp-66" target="JhrDCpCHhot6Ddgrnvpp-97" edge="1">
          <mxGeometry relative="1" as="geometry" />
        </mxCell>
        <mxCell id="p-MilHl3_Y-T9Z1MwIU0-7" style="edgeStyle=orthogonalEdgeStyle;rounded=0;orthogonalLoop=1;jettySize=auto;html=1;exitX=0;exitY=0.5;exitDx=0;exitDy=0;entryX=1;entryY=0.5;entryDx=0;entryDy=0;" parent="1" source="JhrDCpCHhot6Ddgrnvpp-66" target="p-MilHl3_Y-T9Z1MwIU0-2" edge="1">
          <mxGeometry relative="1" as="geometry" />
        </mxCell>
        <mxCell id="p-MilHl3_Y-T9Z1MwIU0-8" style="edgeStyle=orthogonalEdgeStyle;rounded=0;orthogonalLoop=1;jettySize=auto;html=1;exitX=0;exitY=0.5;exitDx=0;exitDy=0;entryX=1;entryY=0.5;entryDx=0;entryDy=0;" parent="1" source="JhrDCpCHhot6Ddgrnvpp-66" target="p-MilHl3_Y-T9Z1MwIU0-1" edge="1">
          <mxGeometry relative="1" as="geometry">
            <Array as="points">
              <mxPoint x="90" y="183" />
              <mxPoint x="90" y="279" />
            </Array>
          </mxGeometry>
        </mxCell>
        <mxCell id="JhrDCpCHhot6Ddgrnvpp-66" value="&lt;font size=&quot;1&quot;&gt;Data collection&lt;/font&gt;" style="ellipse;whiteSpace=wrap;html=1;" parent="1" vertex="1">
          <mxGeometry x="110" y="142.5" width="180" height="80" as="geometry" />
        </mxCell>
        <mxCell id="JhrDCpCHhot6Ddgrnvpp-80" style="edgeStyle=orthogonalEdgeStyle;rounded=0;orthogonalLoop=1;jettySize=auto;html=1;exitX=0;exitY=0.5;exitDx=0;exitDy=0;" parent="1" source="JhrDCpCHhot6Ddgrnvpp-76" target="JhrDCpCHhot6Ddgrnvpp-23" edge="1">
          <mxGeometry relative="1" as="geometry" />
        </mxCell>
        <mxCell id="JhrDCpCHhot6Ddgrnvpp-76" value="Analyze data" style="ellipse;whiteSpace=wrap;html=1;" parent="1" vertex="1">
          <mxGeometry x="470" y="565" width="150" height="80" as="geometry" />
        </mxCell>
        <mxCell id="JhrDCpCHhot6Ddgrnvpp-100" style="edgeStyle=orthogonalEdgeStyle;rounded=0;orthogonalLoop=1;jettySize=auto;html=1;exitX=0.5;exitY=1;exitDx=0;exitDy=0;entryX=0.5;entryY=0;entryDx=0;entryDy=0;" parent="1" source="JhrDCpCHhot6Ddgrnvpp-97" target="JhrDCpCHhot6Ddgrnvpp-21" edge="1">
          <mxGeometry relative="1" as="geometry" />
        </mxCell>
        <mxCell id="JhrDCpCHhot6Ddgrnvpp-97" value="Analyze data" style="ellipse;whiteSpace=wrap;html=1;" parent="1" vertex="1">
          <mxGeometry x="125" y="245" width="150" height="60" as="geometry" />
        </mxCell>
        <mxCell id="p-MilHl3_Y-T9Z1MwIU0-1" value="blood_pressure" style="ellipse;whiteSpace=wrap;html=1;" parent="1" vertex="1">
          <mxGeometry x="-15" y="259.5" width="91" height="38.5" as="geometry" />
        </mxCell>
        <mxCell id="p-MilHl3_Y-T9Z1MwIU0-2" value="blood_oxygen" style="ellipse;whiteSpace=wrap;html=1;" parent="1" vertex="1">
          <mxGeometry x="-11.5" y="298" width="81.5" height="33" as="geometry" />
        </mxCell>
        <mxCell id="7bgbK_c4Y_0-K3uFukcV-1" value="" style="rounded=0;whiteSpace=wrap;html=1;fillColor=#FFFFCC;" vertex="1" parent="1">
          <mxGeometry x="1266" y="51" width="611" height="280" as="geometry" />
        </mxCell>
        <mxCell id="7bgbK_c4Y_0-K3uFukcV-6" style="edgeStyle=orthogonalEdgeStyle;rounded=0;orthogonalLoop=1;jettySize=auto;html=1;exitX=0.5;exitY=1;exitDx=0;exitDy=0;" edge="1" parent="1" source="7bgbK_c4Y_0-K3uFukcV-2" target="7bgbK_c4Y_0-K3uFukcV-4">
          <mxGeometry relative="1" as="geometry">
            <Array as="points">
              <mxPoint x="1397" y="210" />
              <mxPoint x="1542" y="210" />
            </Array>
          </mxGeometry>
        </mxCell>
        <mxCell id="7bgbK_c4Y_0-K3uFukcV-2" value="&lt;font style=&quot;font-size: 24px;&quot;&gt;Step count sensor&lt;/font&gt;" style="rounded=0;whiteSpace=wrap;html=1;fillColor=#E5CCFF;" vertex="1" parent="1">
          <mxGeometry x="1323" y="105" width="149" height="77" as="geometry" />
        </mxCell>
        <mxCell id="7bgbK_c4Y_0-K3uFukcV-8" style="edgeStyle=orthogonalEdgeStyle;rounded=0;orthogonalLoop=1;jettySize=auto;html=1;exitX=0.5;exitY=1;exitDx=0;exitDy=0;entryX=0.5;entryY=0;entryDx=0;entryDy=0;" edge="1" parent="1" source="7bgbK_c4Y_0-K3uFukcV-3" target="7bgbK_c4Y_0-K3uFukcV-4">
          <mxGeometry relative="1" as="geometry" />
        </mxCell>
        <mxCell id="7bgbK_c4Y_0-K3uFukcV-3" value="&lt;font style=&quot;font-size: 24px;&quot;&gt;Heart rate sensor&lt;/font&gt;" style="rounded=0;whiteSpace=wrap;html=1;fillColor=#E5CCFF;" vertex="1" parent="1">
          <mxGeometry x="1609" y="107" width="144" height="76" as="geometry" />
        </mxCell>
        <mxCell id="7bgbK_c4Y_0-K3uFukcV-4" value="&lt;font style=&quot;font-size: 24px;&quot;&gt;Data preprocessing&lt;/font&gt;" style="rounded=0;whiteSpace=wrap;html=1;fillColor=#E5CCFF;" vertex="1" parent="1">
          <mxGeometry x="1439" y="238" width="206" height="60" as="geometry" />
        </mxCell>
        <mxCell id="7bgbK_c4Y_0-K3uFukcV-9" value="" style="rounded=0;whiteSpace=wrap;html=1;fillColor=#FFFFCC;" vertex="1" parent="1">
          <mxGeometry x="1358.5" y="400" width="387" height="297" as="geometry" />
        </mxCell>
        <mxCell id="7bgbK_c4Y_0-K3uFukcV-16" style="edgeStyle=orthogonalEdgeStyle;rounded=0;orthogonalLoop=1;jettySize=auto;html=1;exitX=0.5;exitY=1;exitDx=0;exitDy=0;" edge="1" parent="1" source="7bgbK_c4Y_0-K3uFukcV-4" target="7bgbK_c4Y_0-K3uFukcV-10">
          <mxGeometry relative="1" as="geometry" />
        </mxCell>
        <mxCell id="7bgbK_c4Y_0-K3uFukcV-15" style="edgeStyle=orthogonalEdgeStyle;rounded=0;orthogonalLoop=1;jettySize=auto;html=1;exitX=0.5;exitY=1;exitDx=0;exitDy=0;" edge="1" parent="1" source="7bgbK_c4Y_0-K3uFukcV-10" target="7bgbK_c4Y_0-K3uFukcV-11">
          <mxGeometry relative="1" as="geometry" />
        </mxCell>
        <mxCell id="7bgbK_c4Y_0-K3uFukcV-10" value="&lt;font style=&quot;font-size: 24px;&quot;&gt;MQTT proxy&lt;/font&gt;" style="rounded=0;whiteSpace=wrap;html=1;fillColor=#E5CCFF;" vertex="1" parent="1">
          <mxGeometry x="1457.5" y="474" width="169" height="60" as="geometry" />
        </mxCell>
        <mxCell id="7bgbK_c4Y_0-K3uFukcV-17" value="" style="rounded=0;whiteSpace=wrap;html=1;fillColor=#FFFFCC;" vertex="1" parent="1">
          <mxGeometry x="1363.5" y="798" width="382" height="268" as="geometry" />
        </mxCell>
        <mxCell id="7bgbK_c4Y_0-K3uFukcV-21" style="edgeStyle=orthogonalEdgeStyle;rounded=0;orthogonalLoop=1;jettySize=auto;html=1;exitX=0.5;exitY=1;exitDx=0;exitDy=0;" edge="1" parent="1" source="7bgbK_c4Y_0-K3uFukcV-11" target="7bgbK_c4Y_0-K3uFukcV-18">
          <mxGeometry relative="1" as="geometry" />
        </mxCell>
        <mxCell id="7bgbK_c4Y_0-K3uFukcV-11" value="&lt;font style=&quot;font-size: 24px;&quot;&gt;Data persistence&lt;/font&gt;" style="rounded=0;whiteSpace=wrap;html=1;fillColor=#E5CCFF;" vertex="1" parent="1">
          <mxGeometry x="1458" y="585" width="168" height="60" as="geometry" />
        </mxCell>
        <mxCell id="7bgbK_c4Y_0-K3uFukcV-12" value="&lt;font style=&quot;font-size: 18px;&quot;&gt;Sensor layer&lt;/font&gt;" style="text;strokeColor=none;align=center;fillColor=none;html=1;verticalAlign=middle;whiteSpace=wrap;rounded=0;" vertex="1" parent="1">
          <mxGeometry x="1488.5" y="58" width="107" height="30" as="geometry" />
        </mxCell>
        <mxCell id="7bgbK_c4Y_0-K3uFukcV-13" value="&lt;font style=&quot;font-size: 18px;&quot;&gt;Communication layer&lt;/font&gt;" style="text;strokeColor=none;align=center;fillColor=none;html=1;verticalAlign=middle;whiteSpace=wrap;rounded=0;" vertex="1" parent="1">
          <mxGeometry x="1447" y="422" width="202" height="30" as="geometry" />
        </mxCell>
        <mxCell id="7bgbK_c4Y_0-K3uFukcV-22" style="edgeStyle=orthogonalEdgeStyle;rounded=0;orthogonalLoop=1;jettySize=auto;html=1;exitX=0.5;exitY=1;exitDx=0;exitDy=0;entryX=0.5;entryY=0;entryDx=0;entryDy=0;" edge="1" parent="1" source="7bgbK_c4Y_0-K3uFukcV-18" target="7bgbK_c4Y_0-K3uFukcV-19">
          <mxGeometry relative="1" as="geometry" />
        </mxCell>
        <mxCell id="7bgbK_c4Y_0-K3uFukcV-18" value="&lt;font style=&quot;font-size: 24px;&quot;&gt;AI Analysis Engine&lt;/font&gt;" style="rounded=0;whiteSpace=wrap;html=1;fillColor=#E5CCFF;" vertex="1" parent="1">
          <mxGeometry x="1437" y="867" width="208" height="60" as="geometry" />
        </mxCell>
        <mxCell id="7bgbK_c4Y_0-K3uFukcV-19" value="&lt;font style=&quot;font-size: 24px;&quot;&gt;Visual interface&lt;/font&gt;" style="rounded=0;whiteSpace=wrap;html=1;fillColor=#E5CCFF;" vertex="1" parent="1">
          <mxGeometry x="1437.5" y="973" width="207" height="60" as="geometry" />
        </mxCell>
        <mxCell id="7bgbK_c4Y_0-K3uFukcV-20" value="&lt;font style=&quot;font-size: 18px;&quot;&gt;Application layer&lt;/font&gt;" style="text;strokeColor=none;align=center;fillColor=none;html=1;verticalAlign=middle;whiteSpace=wrap;rounded=0;" vertex="1" parent="1">
          <mxGeometry x="1484" y="805" width="143" height="30" as="geometry" />
        </mxCell>
      </root>
    </mxGraphModel>
  </diagram>
</mxfile>
